<?xml version="1.0" standalone="no"?>
<!DOCTYPE svg PUBLIC "-//W3C//DTD SVG 20010904//EN"
 "http://www.w3.org/TR/2001/REC-SVG-20010904/DTD/svg10.dtd">
<svg version="1.0" xmlns="http://www.w3.org/2000/svg"
 width="1067.000000pt" height="1067.000000pt" viewBox="0 0 1067.000000 1067.000000"
 preserveAspectRatio="xMidYMid meet">
<metadata>
Created by potrace 1.11, written by Peter Selinger 2001-2013
</metadata>
<g transform="translate(0.000000,1067.000000) scale(0.100000,-0.100000)"
fill="#000000" stroke="none">
<path d="M5095 9944 c-468 -37 -1008 -152 -1420 -304 -740 -272 -1328 -682
-1819 -1270 -222 -265 -386 -518 -626 -965 -364 -676 -503 -882 -822 -1212
-231 -239 -320 -415 -350 -695 -40 -372 132 -845 404 -1110 139 -136 317 -235
573 -320 83 -27 172 -62 199 -76 108 -58 203 -173 236 -287 6 -22 18 -168 26
-325 16 -335 32 -526 80 -940 19 -168 48 -423 64 -568 17 -145 33 -276 36
-290 14 -55 43 -100 73 -110 53 -19 97 1 276 123 272 185 329 187 577 18 71
-49 170 -116 221 -151 562 -383 1220 -629 1927 -721 335 -44 547 -50 825 -26
841 74 1536 280 2170 644 815 469 1444 1213 1909 2261 146 329 205 407 539
713 177 163 292 338 370 562 56 163 71 258 72 445 0 96 -6 196 -14 240 -51
283 -206 561 -413 740 -154 134 -282 198 -523 265 -237 66 -261 74 -304 105
-57 42 -96 107 -110 183 -6 34 -29 242 -51 462 -22 220 -68 657 -101 970 -33
314 -64 615 -69 670 -13 147 -37 195 -109 215 -45 12 -96 -10 -170 -74 -187
-162 -353 -217 -503 -167 -67 22 -103 45 -323 198 -526 367 -1113 618 -1710
733 -266 51 -394 62 -750 65 -187 1 -362 1 -390 -1z m720 -1324 c375 -57 691
-157 1015 -321 145 -73 330 -190 369 -232 23 -26 23 -26 5 -56 -22 -33 -118
-121 -198 -181 -30 -22 -62 -50 -70 -62 -24 -33 -20 -82 9 -116 28 -34 42 -41
490 -247 187 -87 597 -276 910 -421 314 -146 589 -273 612 -284 23 -11 47 -28
52 -39 9 -17 6 -24 -22 -45 -18 -14 -75 -41 -127 -61 -335 -127 -614 -396
-746 -718 -71 -176 -100 -348 -90 -547 13 -275 101 -509 283 -751 113 -149
145 -219 151 -325 5 -100 -11 -160 -79 -296 -100 -199 -239 -420 -390 -618
-544 -715 -1297 -1137 -2259 -1265 -169 -23 -524 -31 -686 -16 -512 47 -1019
221 -1437 494 -149 97 -149 102 -30 218 49 46 109 100 135 119 90 67 99 124
28 181 -19 15 -188 97 -375 182 -462 210 -1320 609 -1538 714 -173 84 -177 87
-160 106 26 27 88 62 166 91 596 223 938 820 822 1434 -34 178 -115 360 -234
527 -194 271 -207 421 -61 720 222 453 571 869 992 1181 479 355 1056 579
1671 649 184 21 609 13 792 -15z m-4305 -2504 c157 -28 299 -101 413 -213 156
-153 233 -320 244 -534 18 -341 -158 -635 -458 -761 -109 -45 -191 -61 -324
-61 -147 1 -239 22 -375 89 -81 40 -108 61 -190 143 -146 147 -210 278 -233
481 -44 390 260 779 668 855 91 17 163 17 255 1z m7950 3 c326 -52 566 -279
632 -598 16 -77 19 -120 15 -216 -6 -145 -25 -221 -82 -340 -90 -186 -234
-311 -440 -381 -67 -23 -102 -28 -215 -31 -257 -9 -428 55 -595 222 -156 156
-225 329 -225 560 0 175 37 315 115 441 139 223 375 350 655 353 41 0 104 -4
140 -10z"/>
</g>
</svg>
